<?xml version="1.0" encoding="UTF-8"?>
<svg version="1.1" xmlns="http://www.w3.org/2000/svg" width="2100" height="2100">
<path d="M0 0 C47.20614292 -0.0342738 94.4122868 -0.06611014 141.61843872 -0.08468628 C142.31830827 -0.08496239 143.01817782 -0.08523851 143.73925554 -0.08552299 C158.95325497 -0.09151031 174.16725454 -0.09705046 189.38125431 -0.10213066 C196.84336228 -0.1046251 204.30547021 -0.10721824 211.76757812 -0.10986328 C212.51010489 -0.1101248 213.25263166 -0.11038632 214.01765924 -0.11065576 C238.03833293 -0.11916203 262.05899715 -0.13417231 286.07966512 -0.15259444 C310.78628423 -0.17150801 335.49289812 -0.18378207 360.19952435 -0.18782998 C363.69780634 -0.1884062 367.19608831 -0.18905747 370.69437027 -0.18975449 C371.38280936 -0.18988933 372.07124845 -0.19002418 372.78054934 -0.19016311 C383.81440107 -0.19251663 394.84823651 -0.20176577 405.88208162 -0.21366407 C417.00395283 -0.22550757 428.1258118 -0.22975817 439.24769001 -0.22700275 C445.26192101 -0.22572879 451.27610462 -0.22760474 457.29032707 -0.23841095 C504.32446596 -0.31871931 504.32446596 -0.31871931 525 2 C525.83268646 2.09201525 526.66537292 2.18403051 527.5232923 2.2788341 C532.42547477 2.83010941 537.30729831 3.46759583 542.1875 4.1875 C542.91026123 4.29226654 543.63302246 4.39703308 544.37768555 4.50497437 C611.64869676 14.34980149 676.2159696 40.2185938 732 79 C733.1130249 79.7729541 733.1130249 79.7729541 734.24853516 80.56152344 C748.40587912 90.45431378 761.91717785 101.1373641 774.62890625 112.83984375 C776.60045572 114.63600002 778.60133274 116.37844885 780.62255859 118.11767578 C785.06250134 122.00019744 789.24665341 126.1022035 793.41015625 130.27734375 C794.56686073 131.43261314 794.56686073 131.43261314 795.74693298 132.61122131 C797.36580153 134.22941373 798.98342551 135.84885212 800.59985352 137.46948242 C803.05568718 139.93067232 805.51681365 142.38647809 807.97851562 144.84179688 C809.56021653 146.42415867 811.14160717 148.00683067 812.72265625 149.58984375 C813.44888687 150.31405014 814.17511749 151.03825653 814.9233551 151.78440857 C819.4823224 156.36407095 823.78689316 161.10218626 828 166 C828.99756233 167.1219638 829.99718289 168.24210546 831 169.359375 C839.96529017 179.44810908 848.04282296 190.10648155 856 201 C856.78673096 202.06275146 856.78673096 202.06275146 857.58935547 203.14697266 C905.67484994 268.16331809 933.91333048 348.57942344 940 429 C940.05639648 429.67369629 940.11279297 430.34739258 940.17089844 431.04150391 C948.21960674 529.03095554 920.91929145 631.51736482 863 716 C862.39575195 716.87229248 862.39575195 716.87229248 861.77929688 717.76220703 C849.70340868 735.13445348 836.26352239 751.38494249 822 767 C821.12472656 767.96808594 820.24945312 768.93617188 819.34765625 769.93359375 C811.65707051 778.41807267 803.82305079 786.72451948 795.10546875 794.171875 C792.64272972 796.3102087 790.26512657 798.53084599 787.875 800.75 C782.05649253 806.05416426 775.93505861 810.89274274 769.69384766 815.68701172 C768.17059563 816.86776257 766.66787481 818.07488722 765.16796875 819.28515625 C747.77493868 833.15675205 728.53864145 845.40163593 709 856 C707.67137939 856.72195557 707.67137939 856.72195557 706.31591797 857.45849609 C647.5019422 889.20276665 579.15250118 911.25430738 511.77158356 911.13142776 C510.70343068 911.1334804 509.63527781 911.13553303 508.53475666 911.13764787 C504.97323252 911.14328001 501.41174751 911.14186533 497.85021973 911.14044189 C495.26374184 911.1430277 492.67726435 911.14604145 490.09078741 911.1494453 C483.73918797 911.1569926 477.38759694 911.15921668 471.03599348 911.15977435 C463.4232582 911.16069123 455.81053062 911.16736829 448.19779868 911.17412117 C429.80311154 911.19014953 411.40842525 911.19608067 393.01373238 911.20086992 C384.30608452 911.20320885 375.59843731 911.2068118 366.89078996 911.2105653 C337.06305071 911.22339743 307.23531183 911.23411735 277.40756989 911.2375679 C275.53665355 911.23778953 273.66573721 911.23801132 271.79482087 911.23823325 C269.91948658 911.23845389 268.04415229 911.23867437 266.168818 911.2388947 C262.40681616 911.23933724 258.64481433 911.23978436 254.8828125 911.24023438 C253.48368541 911.24039846 253.48368541 911.24039846 252.05629312 911.24056586 C221.81713793 911.24419586 191.57800671 911.2601155 161.3388607 911.28342474 C129.34137972 911.30804411 97.34391244 911.32174169 65.34642172 911.32293582 C61.8311421 911.32310726 58.3158625 911.32332269 54.80058289 911.32357025 C53.93507085 911.32362602 53.06955881 911.32368179 52.17781914 911.32373925 C38.2758332 911.32488778 24.37387198 911.33589277 10.47189438 911.35045731 C-3.5116657 911.36485357 -17.49519425 911.36804163 -31.47875971 911.36001733 C-39.77524293 911.355576 -48.07162406 911.35936147 -56.36809378 911.37525584 C-62.57906151 911.38621782 -68.7899252 911.38131814 -75.00089103 911.37048396 C-77.50154597 911.36853268 -80.00221127 911.37157888 -82.50285167 911.38032833 C-100.99856377 911.44090903 -118.71224144 909.98521902 -136.6875 905.4375 C-137.67242432 905.18846924 -138.65734863 904.93943848 -139.67211914 904.68286133 C-175.01844084 895.27372684 -205.81311946 876.15893626 -232 851 C-232.92941406 850.11183594 -233.85882813 849.22367188 -234.81640625 848.30859375 C-239.42342885 843.81692696 -239.42342885 843.81692696 -241 842 C-241 841.34 -241 840.68 -241 840 C-241.58394531 839.74089844 -242.16789062 839.48179687 -242.76953125 839.21484375 C-250.72383919 834.88246237 -256.46065879 825.92906992 -262 819 C-262.64710938 818.23171875 -263.29421875 817.4634375 -263.9609375 816.671875 C-293.04231981 781.77421623 -309.18551152 734.92379622 -309.01953125 689.63671875 C-309.01812134 688.89981812 -309.01671143 688.16291748 -309.01525879 687.40368652 C-309.01160814 685.6024542 -309.00600453 683.80122601 -309 682 C-308.31256032 681.99959982 -307.62512064 681.99919963 -306.91684946 681.99878732 C-232.04767371 681.9550976 -157.17850065 681.90770087 -82.30934143 681.84101868 C-80.63087777 681.83952533 -80.63087777 681.83952533 -78.91850576 681.83800181 C-54.59814169 681.81634154 -30.27777827 681.79401872 -5.95741543 681.77101372 C5.96987723 681.75973554 17.89717002 681.74860372 29.82446289 681.73754883 C31.01135022 681.73644626 32.19823754 681.7353437 33.42109115 681.73420772 C71.86776328 681.69856103 110.31443455 681.6725723 148.76111725 681.65161031 C188.28138767 681.63001184 227.80163861 681.5986332 267.32189114 681.55500887 C272.90824265 681.54884694 278.49459427 681.54279641 284.08094597 681.53681374 C285.18038302 681.53563285 286.27982008 681.53445197 287.4125734 681.53323531 C305.08601877 681.5145388 322.75945475 681.5061035 340.4329088 681.50153876 C358.2154982 681.49672564 375.99805189 681.48102288 393.78062213 681.45433434 C404.33594978 681.43882004 414.89120694 681.43152533 425.44654535 681.43623071 C432.51180274 681.43855481 439.57699389 681.42992453 446.64223041 681.41267589 C450.6587492 681.40317526 454.6751216 681.39816222 458.69164617 681.40660437 C480.26210514 681.44772787 501.47437001 680.63403113 522.5 675.3125 C524.03962402 674.93013184 524.03962402 674.93013184 525.61035156 674.54003906 C562.01644368 665.20142457 596.25160918 647.71916773 623.85546875 621.9921875 C625.79217432 620.19306211 627.78148736 618.50290804 629.8125 616.8125 C672.19604588 579.73760027 696.45925887 521.61188682 701.75 466.5 C705.19705877 403.27589769 686.03389884 341.23804414 643.5625 293.625 C638.11588184 287.84684857 632.13817516 283.01291782 625.76757812 278.30712891 C624.0775806 277.05737107 622.40562498 275.78637525 620.734375 274.51171875 C576.02915432 240.96109519 523.21394401 229.83665389 468.42249453 229.85802758 C464.95320301 229.85824512 461.48392039 229.85264375 458.01463318 229.84762573 C452.01262736 229.83955345 446.01062573 229.83458286 440.00861549 229.83133507 C430.49406303 229.8257995 420.97954566 229.80886155 411.4650116 229.78999329 C408.19831949 229.78363795 404.9316273 229.77732925 401.66493511 229.77101612 C400.84870139 229.76943236 400.03246767 229.7678486 399.19149959 229.76621684 C389.92104456 229.7483169 380.65058707 229.73207452 371.38012695 229.71704102 C370.5338293 229.71566514 369.68753165 229.71428927 368.81558862 229.71287171 C355.13215108 229.69098864 341.4487228 229.68019517 327.76527087 229.67267027 C313.66097155 229.66455756 299.55675038 229.64113461 285.45249575 229.6047166 C276.78538828 229.58287128 268.11844229 229.5729711 259.45130875 229.57921693 C253.49229711 229.58242764 247.53342193 229.57082779 241.57445256 229.54832252 C238.15421637 229.53584163 234.73453377 229.53150357 231.31425095 229.54073906 C206.12474739 229.60181116 181.96800326 227.01307687 158 219 C157.29375488 218.76555176 156.58750977 218.53110352 155.85986328 218.28955078 C135.15761965 211.27997391 116.29672258 201.02154069 98.75 188.0625 C98.14905518 187.62123779 97.54811035 187.17997559 96.92895508 186.7253418 C86.31155373 178.68643185 76.87975466 169.06643819 67.48071289 159.66601562 C65.8082835 157.99578905 64.12796331 156.33377621 62.44726562 154.671875 C55.84765432 148.10683946 49.73136419 141.35266367 44 134 C43.4949292 133.36481445 42.9898584 132.72962891 42.46948242 132.07519531 C15.94248436 98.39042693 -0.39941582 54.43314175 -0.0625 11.4375 C-0.05798828 10.33341797 -0.05347656 9.22933594 -0.04882812 8.09179688 C-0.0371514 5.394473 -0.02077525 2.69726653 0 0 Z " fill="#373736" transform="translate(739,790)"/>
<path d="M0 0 C7.4974524 0.00977583 14.99486309 0.00169297 22.49231351 -0.00661101 C37.17349714 -0.02230002 51.8546413 -0.02108316 66.53582857 -0.01237428 C79.37819552 -0.00479448 92.22054809 -0.00287288 105.06291683 -0.00644221 C105.91844577 -0.00667136 106.7739747 -0.00690052 107.65542876 -0.00713662 C111.12915366 -0.00807078 114.60287855 -0.009026 118.07660344 -0.01001591 C150.57798872 -0.0191672 183.079349 -0.01091198 215.58073041 0.00527478 C244.40609584 0.01952158 273.23142151 0.018224 302.05678661 0.00389181 C334.51803226 -0.01219463 366.9792559 -0.01853066 399.44050498 -0.0092714 C402.90439445 -0.00830937 406.36828394 -0.00737085 409.83217342 -0.00644221 C410.68493855 -0.00620497 411.53770368 -0.00596774 412.41631018 -0.00572332 C425.25215464 -0.00232147 438.0879831 -0.00628167 450.92382534 -0.01388087 C465.52166674 -0.02248066 480.11946285 -0.02026673 494.71729865 -0.00403863 C502.87126463 0.00472868 511.02513237 0.00540568 519.17909566 -0.00597716 C525.28669971 -0.01355826 531.39418966 -0.00525601 537.50177973 0.00894656 C539.95745528 0.01227276 542.41314412 0.01064963 544.86881098 0.0033192 C563.98948801 -0.04934027 582.77085739 1.21355464 601.3409663 6.08250509 C602.32935497 6.3374172 603.31774364 6.59232931 604.33608348 6.85496603 C646.74631686 18.1996018 681.3589764 42.75817745 710.78237255 74.65672384 C713.56078324 77.65764632 716.43985156 80.51298831 719.4034663 83.33250509 C752.68135153 116.3896415 773.71850571 168.6972598 774.3031245 215.36329733 C774.30907435 217.49504843 774.30581053 219.62654251 774.29799755 221.75828634 C774.29658763 222.49518697 774.29517772 223.23208761 774.29372509 223.99131857 C774.29007443 225.79255089 774.28447083 227.59377908 774.2784663 229.39500509 C773.59394295 229.39540527 772.90941961 229.39580545 772.20415314 229.39621776 C697.64627107 229.43991115 623.08839171 229.48731307 548.53052623 229.55398641 C546.85882057 229.55547976 546.85882057 229.55547976 545.15334307 229.55700328 C520.93041448 229.57866397 496.70748654 229.60098682 472.48455919 229.62399137 C460.6049079 229.63526947 448.72525647 229.64640131 436.84560497 229.65745626 C435.07239305 229.65911011 435.07239305 229.65911011 433.26335867 229.66079737 C394.97617154 229.69643875 356.68898528 229.72243026 318.40178753 229.74339478 C279.042717 229.76499734 239.68366602 229.79638078 200.32461344 229.83999622 C194.75998533 229.84615808 189.1953571 229.85220862 183.63072879 229.85819135 C181.98799966 229.85996268 181.98799966 229.85996268 180.31208408 229.86176978 C162.71342034 229.88046022 145.11476604 229.8889005 127.51609359 229.89346633 C109.80516282 229.89828154 92.09426785 229.9139938 74.38335629 229.94067075 C63.87288482 229.95617523 53.36248406 229.96348314 42.8520018 229.95877438 C35.81409148 229.95644792 28.77624756 229.96509672 21.73835816 229.9823292 C17.73909912 229.99181737 13.7399868 229.99685841 9.74072202 229.98840072 C-12.58546215 229.9455904 -34.92752254 230.54108405 -56.6590337 236.20750509 C-57.68714161 236.46612325 -58.71524952 236.72474142 -59.77451222 236.9911965 C-97.47410609 246.68697179 -131.90452654 265.01217495 -160.5496587 291.41063009 C-162.46015134 293.15618811 -164.41157585 294.8135796 -166.4090337 296.45750509 C-169.57477144 299.14986148 -172.24930631 302.13346569 -174.9324712 305.30125509 C-176.07550178 306.63895026 -177.24540528 307.95443356 -178.4480962 309.23875509 C-191.54528752 323.2834028 -201.77658726 339.48372142 -210.7215337 356.39500509 C-211.12710499 357.15152364 -211.53267628 357.9080422 -211.95053761 358.68748556 C-223.86905384 381.22132038 -231.05079851 406.2574388 -234.7215337 431.39500509 C-234.91416798 432.71154073 -234.91416798 432.71154073 -235.11069386 434.05467306 C-243.53984531 494.992133 -225.41295672 556.62808735 -188.7215337 605.39500509 C-178.66449523 618.63267467 -167.0769219 628.65284749 -153.7215337 638.39500509 C-152.82918019 639.05436056 -152.82918019 639.05436056 -151.91879933 639.72703634 C-114.81873434 666.87342535 -67.43195224 681.57854624 -21.58867543 681.5330361 C-20.4160637 681.53585737 -19.24345198 681.53867865 -18.03530656 681.54158543 C-14.81143102 681.54843119 -11.58758657 681.55095369 -8.36370497 681.55163656 C-4.87396598 681.5534904 -1.3842391 681.56110547 2.10549266 681.56811605 C8.14684432 681.57960234 14.18819325 681.58786757 20.22955234 681.59423528 C29.8018497 681.60461449 39.37411298 681.62519349 48.94638927 681.64735494 C52.2301025 681.65483363 55.51381587 681.6622476 58.79752929 681.66964231 C59.61808967 681.67149288 60.43865005 681.67334344 61.28407589 681.67525009 C70.61073461 681.69614857 79.93739709 681.71498802 89.264062 681.73289571 C90.1158337 681.7345339 90.9676054 681.73617208 91.84518837 681.7378599 C105.61813748 681.76409003 119.39108925 681.78276612 133.1640527 681.79948762 C147.34846353 681.81698479 161.53282264 681.84591152 175.71719207 681.88437699 C184.44012642 681.90761535 193.16297636 681.92175684 201.88594191 681.92370462 C207.88138433 681.92583438 213.87674327 681.93893099 219.87214807 681.96018395 C223.31617469 681.97206082 226.76003583 681.97946865 230.20408161 681.9734715 C251.01045214 681.95153808 271.70845119 682.95129499 291.9659663 688.08250509 C293.50546947 688.46487325 293.50546947 688.46487325 295.07607372 688.85496603 C334.32319948 698.99615435 367.57253821 721.21050858 395.87319286 749.72898946 C397.53472233 751.40130172 399.20677386 753.06255872 400.8800288 754.72313009 C407.46769583 761.30236307 413.52283232 768.06594281 419.2784663 775.39500509 C420.17043527 776.4910839 421.06342859 777.58633128 421.9581538 778.68016134 C448.82922477 812.67541306 465.68195821 856.44169123 465.3409663 899.95750509 C465.33645458 901.06158712 465.33194286 902.16566915 465.32729442 903.30320821 C465.31561769 906.00053209 465.29924155 908.69773856 465.2784663 911.39500509 C417.68032916 911.44643453 370.08218996 911.4941865 322.4840327 911.52203451 C321.42489786 911.52265576 321.42489786 911.52265576 320.34436635 911.52328957 C304.99380878 911.53227131 289.64325092 911.54058142 274.29269261 911.54820108 C266.76321086 911.55194262 259.23372918 911.55583234 251.70424755 911.55980001 C250.95503112 911.56019229 250.20581469 911.56058457 249.43389474 911.56098873 C225.21264441 911.57373987 200.99141528 911.59624901 176.77017776 911.62389675 C151.8497037 911.65229053 126.92924134 911.67068357 102.00875138 911.67675006 C98.4772574 911.67761434 94.94576345 911.67859125 91.41426952 911.67963682 C90.71931921 911.67983909 90.02436891 911.68004136 89.3083595 911.68024975 C78.18641928 911.68377505 67.06451557 911.697635 55.94259016 911.71550119 C44.72203268 911.73330013 33.5015101 911.73963475 22.2809356 911.73550922 C16.21733177 911.73360285 10.15383376 911.73635826 4.09024913 911.75262151 C-104.15521206 912.02811305 -206.9842048 882.32126684 -318.16831105 790.83055196 C-319.80794454 789.31514094 -321.46057793 787.81494782 -323.11606495 786.31688009 C-323.68647511 785.79795187 -324.25688527 785.27902364 -324.84458058 784.74437032 C-325.92501466 783.7615188 -327.0081017 782.78157072 -328.09458058 781.80540548 C-330.9252926 779.21770227 -333.51463389 776.53558467 -336.01450245 773.62547384 C-340.16945919 768.79624529 -344.68344153 764.36140545 -349.2215337 759.89500509 C-354.9634365 754.24381166 -360.49822091 748.52990241 -365.7215337 742.39500509 C-366.5671587 741.43078634 -367.4127837 740.46656759 -368.2840337 739.47313009 C-388.86302217 715.5962268 -406.72369113 689.09978805 -421.7215337 661.39500509 C-422.20783253 660.50990255 -422.69413136 659.62480001 -423.19516652 658.71287618 C-453.04740981 604.21652951 -469.3263239 544.11217142 -474.7215337 482.39500509 C-474.79356007 481.59191915 -474.86558644 480.78883321 -474.93979542 479.96141134 C-482.98567384 385.54505554 -457.02393184 286.02990164 -370.7215337 160.39500509 C-370.2598882 159.84167501 -369.79824269 159.28834493 -369.32260792 158.71824728 C-363.46503005 151.71852868 -357.49501569 145.00205113 -350.95200245 138.62547384 C-348.92671993 136.60019132 -347.06622078 134.52118976 -345.2215337 132.33250509 C-341.93632349 128.50485319 -338.30537988 125.20893648 -334.52231495 121.87938009 C-331.95801553 119.60477139 -329.44640765 117.28652427 -326.94370167 114.94505392 C-320.74296635 109.15386996 -314.39608723 103.64051959 -307.7215337 98.39500509 C-307.11889698 97.91982443 -306.51626027 97.44464376 -305.89536183 96.95506368 C-220.52996313 29.88527199 -120.14246738 0.03350631 0 0 Z " fill="#38B8B1" transform="translate(905.7215337036178,408.60499491076916)"/>
<path d="M0 0 C7.21000296 6.0083358 13.80965949 12.45337237 19.91796875 19.58203125 C21.52802548 21.45187199 23.15563298 23.29815219 24.80078125 25.13671875 C33.83550774 35.29972696 41.98266891 46.02412958 50 57 C50.78673096 58.06275146 50.78673096 58.06275146 51.58935547 59.14697266 C99.67484994 124.16331809 127.91333048 204.57942344 134 285 C134.05639648 285.67369629 134.11279297 286.34739258 134.17089844 287.04150391 C142.21960674 385.03095554 114.91929145 487.51736482 57 572 C56.39575195 572.87229248 56.39575195 572.87229248 55.77929688 573.76220703 C43.70340868 591.13445348 30.26352239 607.38494249 16 623 C15.12472656 623.96808594 14.24945312 624.93617188 13.34765625 625.93359375 C5.65707051 634.41807267 -2.17694921 642.72451948 -10.89453125 650.171875 C-13.35727028 652.3102087 -15.73487343 654.53084599 -18.125 656.75 C-23.94350747 662.05416426 -30.06494139 666.89274274 -36.30615234 671.68701172 C-37.82940437 672.86776257 -39.33212519 674.07488722 -40.83203125 675.28515625 C-58.22506132 689.15675205 -77.46135855 701.40163593 -97 712 C-98.32862061 712.72195557 -98.32862061 712.72195557 -99.68408203 713.45849609 C-158.4980578 745.20276665 -226.84749882 767.25430738 -294.22841644 767.13142776 C-295.29656932 767.1334804 -296.36472219 767.13553303 -297.46524334 767.13764787 C-301.02676748 767.14328001 -304.58825249 767.14186533 -308.14978027 767.14044189 C-310.73625816 767.1430277 -313.32273565 767.14604145 -315.90921259 767.1494453 C-322.26081203 767.1569926 -328.61240306 767.15921668 -334.96400652 767.15977435 C-342.5767418 767.16069123 -350.18946938 767.16736829 -357.80220132 767.17412117 C-376.19688846 767.19014953 -394.59157475 767.19608067 -412.98626762 767.20086992 C-421.69391548 767.20320885 -430.40156269 767.2068118 -439.10921004 767.2105653 C-468.93694929 767.22339743 -498.76468817 767.23411735 -528.59243011 767.2375679 C-530.46334645 767.23778953 -532.33426279 767.23801132 -534.20517913 767.23823325 C-536.08051342 767.23845389 -537.95584771 767.23867437 -539.831182 767.2388947 C-543.59318384 767.23933724 -547.35518567 767.23978436 -551.1171875 767.24023438 C-552.51631459 767.24039846 -552.51631459 767.24039846 -553.94370688 767.24056586 C-584.18286207 767.24419586 -614.42199329 767.2601155 -644.6611393 767.28342474 C-676.65862028 767.30804411 -708.65608756 767.32174169 -740.65357828 767.32293582 C-744.1688579 767.32310726 -747.6841375 767.32332269 -751.19941711 767.32357025 C-752.06492915 767.32362602 -752.93044119 767.32368179 -753.82218086 767.32373925 C-767.7241668 767.32488778 -781.62612802 767.33589277 -795.52810562 767.35045731 C-809.5116657 767.36485357 -823.49519425 767.36804163 -837.47875971 767.36001733 C-845.77524293 767.355576 -854.07162406 767.35936147 -862.36809378 767.37525584 C-868.57906151 767.38621782 -874.7899252 767.38131814 -881.00089103 767.37048396 C-883.50154597 767.36853268 -886.00221127 767.37157888 -888.50285167 767.38032833 C-906.99856377 767.44090903 -924.71224144 765.98521902 -942.6875 761.4375 C-943.67242432 761.18846924 -944.65734863 760.93943848 -945.67211914 760.68286133 C-985.65143305 750.0404317 -1018.44698585 727.21703774 -1047 698 C-1046.67 697.34 -1046.34 696.68 -1046 696 C-1045.319375 696.66644531 -1044.63875 697.33289062 -1043.9375 698.01953125 C-1017.76392541 723.11691247 -983.2402388 739.07194465 -948.125 746.875 C-947.27212402 747.06602295 -946.41924805 747.2570459 -945.54052734 747.45385742 C-928.45223959 750.99851166 -911.41217115 751.28923853 -894.03118896 751.25396729 C-891.53740481 751.25627549 -889.04362133 751.25945441 -886.54983926 751.26342177 C-881.15605785 751.2700012 -875.76233133 751.27045614 -870.36854935 751.26532745 C-862.34678884 751.25772098 -854.32506182 751.26165156 -846.30330149 751.26774407 C-831.96792978 751.27824731 -817.63257596 751.27737363 -803.29720257 751.27158624 C-790.74415619 751.26654375 -778.19111634 751.26524699 -765.63806915 751.26763153 C-764.38626651 751.26786069 -764.38626651 751.26786069 -763.10917493 751.26809447 C-759.72090571 751.26871722 -756.3326365 751.26935403 -752.94436729 751.270014 C-721.18329011 751.27612654 -689.42222426 751.27059496 -657.66114883 751.2598202 C-629.50260876 751.25034011 -601.34408679 751.25117008 -573.18554688 751.26074219 C-541.49854831 751.27147791 -509.81155977 751.2756825 -478.12455964 751.26951766 C-474.73894644 751.26887631 -471.35333324 751.26825062 -467.96772003 751.26763153 C-467.13419054 751.26747338 -466.30066104 751.26731522 -465.44187308 751.26715227 C-452.91139803 751.26488718 -440.38093028 751.26751963 -427.85045624 751.27259064 C-413.57859989 751.27833783 -399.30676411 751.27681942 -385.03491029 751.26602915 C-377.76440068 751.260712 -370.49392461 751.25845001 -363.22341537 751.26532745 C-313.99786738 751.48762415 -313.99786738 751.48762415 -265.0625 746.6875 C-264.33617371 746.5795108 -263.60984741 746.47152161 -262.86151123 746.36026001 C-250.10896723 744.46199901 -237.5025669 742.16925533 -225 739 C-223.3593457 738.58476074 -223.3593457 738.58476074 -221.68554688 738.16113281 C-156.57638077 721.422395 -93.91295724 691.84952478 -42.91015625 647.5078125 C-40.13788464 645.11882139 -37.30355158 642.83740296 -34.4375 640.5625 C-29.71700487 636.73097403 -25.45660468 632.5770298 -21.20996094 628.23950195 C-18.62973964 625.608032 -16.03607352 623.08876171 -13.1875 620.75 C-10.02751258 618.13957561 -7.45674334 615.178574 -4.80859375 612.05859375 C-2.99714902 609.99675493 -1.09618631 608.09623288 0.875 606.1875 C4.78949406 602.32570106 8.23005352 598.17776971 11.66796875 593.890625 C13.95994728 591.04964659 16.31813118 588.27654349 18.6875 585.5 C71.70811178 521.92474078 103.08013507 443.37230376 115 362 C115.19335938 360.68805664 115.19335938 360.68805664 115.390625 359.34960938 C117.97169308 341.48185835 118.20648536 323.57854942 118.1875 305.5625 C118.18689575 304.50041321 118.1862915 303.43832642 118.18566895 302.34405518 C118.16117375 286.46728801 117.83212096 270.78597753 116 255 C115.87641113 253.86175781 115.75282227 252.72351562 115.62548828 251.55078125 C110.49398326 205.12465582 97.43368684 160.44954739 78 118 C77.6198877 117.16146484 77.23977539 116.32292969 76.84814453 115.45898438 C60.07423175 78.57820781 37.42696063 44.64230405 11 14 C10.30390625 13.19046875 9.6078125 12.3809375 8.890625 11.546875 C6.51739812 8.8085363 4.15920909 6.15512681 1.5625 3.625 C0 2 0 2 0 0 Z " fill="#E4E4E4" transform="translate(1545,934)"/>
<path d="M0 0 C7.56610569 6.33082313 14.27448155 12.94635908 20.25 20.8125 C21.08470825 21.9106604 21.08470825 21.9106604 21.9362793 23.03100586 C48.36310259 58.40587859 64.18195981 102.04527294 64.01953125 146.36328125 C64.01812134 147.10018188 64.01671143 147.83708252 64.01525879 148.59631348 C64.01160814 150.3975458 64.00600453 152.19877399 64 154 C63.31547666 154.00040018 62.63095331 154.00080037 61.92568684 154.00121268 C-12.63219523 154.04490606 -87.19007459 154.09230798 -161.74794006 154.15898132 C-163.41964573 154.16047467 -163.41964573 154.16047467 -165.12512323 154.16199819 C-189.34805182 154.18365888 -213.57097975 154.20598173 -237.7939071 154.22898628 C-249.6735584 154.24026438 -261.55320982 154.25139622 -273.43286133 154.26245117 C-275.20607325 154.26410502 -275.20607325 154.26410502 -277.01510763 154.26579228 C-315.30229476 154.30143366 -353.58948102 154.32742517 -391.87667877 154.34838969 C-431.23574929 154.36999225 -470.59480028 154.40137569 -509.95385286 154.44499113 C-515.51848097 154.45115299 -521.0831092 154.45720353 -526.6477375 154.46318626 C-528.29046664 154.46495759 -528.29046664 154.46495759 -529.96638222 154.46676469 C-547.56504595 154.48545513 -565.16370026 154.49389541 -582.7623727 154.49846124 C-600.47330348 154.50327645 -618.18419844 154.51898871 -635.89511 154.54566566 C-646.40558148 154.56117014 -656.91598224 154.56847805 -667.4264645 154.56376929 C-674.46437481 154.56144283 -681.50221874 154.57009163 -688.54010814 154.58732411 C-692.53936718 154.59681228 -696.53847949 154.60185332 -700.53774428 154.59339563 C-722.86392844 154.55058531 -745.20598884 155.14607896 -766.9375 160.8125 C-767.96560791 161.07111816 -768.99371582 161.32973633 -770.05297852 161.59619141 C-807.75257239 171.2919667 -842.18299283 189.61716987 -870.828125 216.015625 C-872.73861763 217.76118302 -874.69004214 219.41857451 -876.6875 221.0625 C-879.85323773 223.75485639 -882.5277726 226.7384606 -885.2109375 229.90625 C-886.35396808 231.24394517 -887.52387157 232.55942847 -888.7265625 233.84375 C-901.82375382 247.88839771 -912.05505356 264.08871634 -921 281 C-921.60835693 282.13477783 -921.60835693 282.13477783 -922.22900391 283.29248047 C-934.14752013 305.82631529 -941.32926481 330.86243371 -945 356 C-945.12842285 356.87769043 -945.2568457 357.75538086 -945.38916016 358.65966797 C-953.71392319 418.84246532 -936.11538892 479.69624268 -900.36035156 528.21728516 C-898.32386792 530.88605822 -896.17803512 533.44575882 -894 536 C-894.33 536.66 -894.66 537.32 -895 538 C-924.54732192 510.36926112 -943.2182172 474.27064741 -955 436 C-955.38929688 434.76636719 -955.77859375 433.53273438 -956.1796875 432.26171875 C-957.26882148 428.5341788 -958.18196029 424.79396774 -959 421 C-959.18191895 420.18257324 -959.36383789 419.36514648 -959.55126953 418.52294922 C-962.77890968 403.35604173 -963.37699385 388.44633609 -963.375 373 C-963.37681274 372.09310425 -963.37862549 371.1862085 -963.38049316 370.25183105 C-963.37542002 347.82548197 -960.77038609 326.41150824 -953.67382812 305.07128906 C-953.00392471 303.01206421 -952.38058611 300.94341334 -951.765625 298.8671875 C-938.8795811 256.42505878 -910.17844668 216.01036408 -875 189 C-874.40993164 188.53883789 -873.81986328 188.07767578 -873.21191406 187.60253906 C-863.87467422 180.31389628 -854.35765557 173.75041235 -844 168 C-843.25314941 167.58476074 -842.50629883 167.16952148 -841.73681641 166.74169922 C-827.04032141 158.64214972 -812.22091798 152.3558871 -796.11523438 147.62207031 C-794.66968011 147.19694655 -793.22572603 146.76635345 -791.78320312 146.33105469 C-782.85782597 143.64421635 -774.20349957 141.46656925 -764.91796875 140.45703125 C-762.6944358 140.19765602 -760.47266978 139.90864522 -758.26691492 139.52651984 C-750.10585563 138.12149109 -742.2388685 137.7189457 -733.96895123 137.75390434 C-732.5962779 137.7524213 -731.22360529 137.75006014 -729.85093477 137.74691135 C-726.10022737 137.74082049 -722.34962977 137.74708381 -718.59893061 137.75546761 C-714.5105412 137.76237468 -710.42216221 137.7575871 -706.33377057 137.75431263 C-699.17566827 137.75017584 -692.0175993 137.75343442 -684.85950089 137.76158905 C-674.21574818 137.77368083 -663.57201639 137.77425864 -652.92825806 137.77250507 C-635.02201724 137.76987975 -617.1157912 137.77655069 -599.20955467 137.78853989 C-581.48294184 137.80037836 -563.75633516 137.80807268 -546.0297184 137.81024551 C-544.92707998 137.81038299 -543.82444156 137.81052047 -542.68838985 137.81066212 C-537.08853057 137.81133879 -531.48867128 137.81194156 -525.88881198 137.81251587 C-486.23633596 137.81671547 -446.58386798 137.83018677 -406.93139648 137.84912109 C-368.41219119 137.86749303 -329.8929881 137.88165876 -291.3737793 137.89013672 C-290.18622063 137.89039977 -288.99866197 137.89066282 -287.77511667 137.89093385 C-275.84904541 137.89357091 -263.92297412 137.89612254 -251.99690283 137.89861157 C-227.70263176 137.90368384 -203.40836083 137.90932635 -179.11408997 137.91531372 C-177.99710555 137.9155883 -176.88012114 137.91586288 -175.72928871 137.91614578 C-101.1528558 137.93454371 -26.57642734 137.96623371 48 138 C47.84578058 134.46378316 47.68898474 130.92768499 47.53173828 127.39160156 C47.48829788 126.39480377 47.44485748 125.39800598 47.40010071 124.3710022 C45.47093658 81.22787715 30.61225666 35.90503946 1.12792969 3.46948242 C0 2 0 2 0 0 Z " fill="#E4E5E5" transform="translate(1616,484)"/>
<path d="M0 0 C37.73877279 30.19101824 59.24640041 81.19092012 65.52394104 127.89833069 C66.17000078 133.78456767 66.10884725 139.64787784 66.0625 145.5625 C66.05798828 146.66658203 66.05347656 147.77066406 66.04882812 148.90820312 C66.0371514 151.605527 66.02077525 154.30273347 66 157 C18.40186286 157.05142944 -29.19627633 157.09918141 -76.79443359 157.12702942 C-77.50052349 157.12744359 -78.20661338 157.12785776 -78.93409994 157.12828448 C-94.28465751 157.13726622 -109.63521538 157.14557633 -124.98577368 157.15319599 C-132.51525544 157.15693753 -140.04473711 157.16082725 -147.57421875 157.16479492 C-148.32343518 157.1651872 -149.07265161 157.16557948 -149.84457156 157.16598364 C-174.06582188 157.17873478 -198.28705101 157.20124392 -222.50828853 157.22889166 C-247.42876259 157.25728545 -272.34922495 157.27567848 -297.26971491 157.28174497 C-300.8012089 157.28260925 -304.33270284 157.28358616 -307.86419678 157.28463173 C-308.55914708 157.284834 -309.25409739 157.28503627 -309.9701068 157.28524467 C-321.09204701 157.28876996 -332.21395072 157.30262991 -343.33587614 157.3204961 C-354.55643362 157.33829504 -365.7769562 157.34462967 -376.9975307 157.34050413 C-383.06113453 157.33859776 -389.12463254 157.34135317 -395.18821716 157.35761642 C-503.43367835 157.63310796 -606.2626711 127.92626175 -719 35 C-720.72043464 33.03734018 -722.36168313 31.03305626 -724 29 C-720.23618879 30.60672129 -717.55848787 32.99522581 -714.5 35.6875 C-694.10090739 53.24349299 -671.44210062 68.78914606 -648 82 C-646.72600342 82.72002197 -646.72600342 82.72002197 -645.42626953 83.45458984 C-606.66658373 105.21969564 -564.65100795 122.0877428 -521 131 C-519.21480957 131.36520752 -519.21480957 131.36520752 -517.39355469 131.73779297 C-484.96542359 138.28908554 -452.39624036 141.14231729 -419.31541443 141.15821838 C-417.27546454 141.16279494 -415.23551558 141.16779653 -413.19556767 141.17318195 C-407.63580591 141.18664804 -402.07605019 141.1941476 -396.51627648 141.20060861 C-390.50356034 141.20866377 -384.49085658 141.22234367 -378.47814941 141.23532104 C-368.07590084 141.25701171 -357.67365001 141.275217 -347.27139091 141.29092598 C-336.36949628 141.30740428 -325.46760811 141.32590244 -314.56572151 141.34705925 C-313.88619382 141.34837686 -313.20666612 141.34969446 -312.50654668 141.351052 C-309.05513687 141.3577547 -305.60372713 141.36449311 -302.15231741 141.37124526 C-277.74811698 141.4189242 -253.3439105 141.46213318 -228.93969727 141.50268555 C-205.24112509 141.54207565 -181.5425579 141.58350782 -157.84399414 141.62768555 C-157.11264863 141.62904808 -156.38130312 141.63041061 -155.62779563 141.63181442 C-148.28287973 141.64550058 -140.93796392 141.65922804 -133.59304815 141.67298577 C-118.63251289 141.70100732 -103.67197712 141.72875327 -88.71144104 141.7563324 C-88.02367991 141.7576006 -87.33591878 141.7588688 -86.6273164 141.76017542 C-40.75155238 141.84473659 5.12422298 141.92285436 51 142 C50.86801127 138.54655491 50.72583573 135.09359665 50.58203125 131.640625 C50.52698425 130.19550537 50.52698425 130.19550537 50.4708252 128.72119141 C50.05716995 119.01353821 48.76155354 109.54781699 47 100 C46.86223145 99.24799316 46.72446289 98.49598633 46.58251953 97.72119141 C40.16340845 63.78524344 25.1044601 28.81117891 1.1796875 3.453125 C0 2 0 2 0 0 Z " fill="#E4E5E5" transform="translate(1305,1163)"/>
<path d="M0 0 C3.61475047 1.53378174 5.94598019 3.71620748 8.75 6.4375 C26.24494666 22.76333328 48.73925208 34.6497059 71 43 C71.66193359 43.24830566 72.32386719 43.49661133 73.00585938 43.75244141 C82.80930286 47.35753033 92.79513764 49.87092774 103 52 C104.00280068 52.21072915 104.00280068 52.21072915 105.02585995 52.42571545 C119.50209438 55.35237561 133.84245221 55.43171444 148.56588948 55.38876271 C152.09102263 55.38186668 155.61611174 55.39254954 159.14123535 55.40104675 C165.23266038 55.41352728 171.32401442 55.41561536 177.41544914 55.41069031 C186.25275304 55.40382647 195.08995183 55.41649871 203.92723686 55.43419749 C218.31094299 55.46275939 232.69463768 55.48033462 247.07836914 55.48876953 C248.3656105 55.4895303 248.3656105 55.4895303 249.67885674 55.49030644 C255.76507101 55.49383108 261.85128547 55.49696021 267.9375 55.5 C274.87443051 55.50346706 281.81136086 55.50711762 288.74829102 55.51123047 C289.60265768 55.51173308 290.45702435 55.5122357 291.33728092 55.51275355 C305.6620766 55.5215447 319.98683327 55.54207572 334.31160265 55.57071257 C343.10877395 55.58774236 351.9058339 55.59454583 360.70301945 55.58740652 C366.74886185 55.58317782 372.79463474 55.58973298 378.84046101 55.60420525 C382.30935165 55.612139 385.77806913 55.61559126 389.24695778 55.60538292 C413.77053158 55.54998003 437.6011003 57.03183682 461.32739258 63.46704102 C464.20978581 64.24859168 467.09157041 65.02298238 469.98828125 65.75 C476.97498573 67.52953689 483.40745217 70.10018515 490 73 C491.37594953 73.58416444 492.75227435 74.16744544 494.12890625 74.75 C524.35001944 87.68049282 549.36997663 106.35456093 573 129 C572.67 129.66 572.34 130.32 572 131 C571.15179687 130.32195312 570.30359375 129.64390625 569.4296875 128.9453125 C519.70545632 89.38526754 465.60690733 72.83337987 402.42249453 72.85802758 C398.95320301 72.85824512 395.48392039 72.85264375 392.01463318 72.84762573 C386.01262736 72.83955345 380.01062573 72.83458286 374.00861549 72.83133507 C364.49406303 72.8257995 354.97954566 72.80886155 345.4650116 72.78999329 C342.19831949 72.78363795 338.9316273 72.77732925 335.66493511 72.77101612 C334.84870139 72.76943236 334.03246767 72.7678486 333.19149959 72.76621684 C323.92104456 72.7483169 314.65058707 72.73207452 305.38012695 72.71704102 C304.5338293 72.71566514 303.68753165 72.71428927 302.81558862 72.71287171 C289.13215108 72.69098864 275.4487228 72.68019517 261.76527087 72.67267027 C247.66097155 72.66455756 233.55675038 72.64113461 219.45249575 72.6047166 C210.78538828 72.58287128 202.11844229 72.5729711 193.45130875 72.57921693 C187.49229711 72.58242764 181.53342193 72.57082779 175.57445256 72.54832252 C172.15421637 72.53584163 168.73453377 72.53150357 165.31425095 72.54073906 C140.12474739 72.60181116 115.96800326 70.01307687 92 62 C91.29375488 61.76555176 90.58750977 61.53110352 89.85986328 61.28955078 C60.90492827 51.48569345 34.86544264 35.32315186 13 14 C12.41460449 13.42975098 11.82920898 12.85950195 11.22607422 12.27197266 C9.39409772 10.47953868 7.56973475 8.67985751 5.75 6.875 C5.17612549 6.30595947 4.60225098 5.73691895 4.01098633 5.15063477 C0 1.12239423 0 1.12239423 0 0 Z " fill="#E2E2E2" transform="translate(805,947)"/>
<path d="M0 0 C5.29012124 4.40843437 10.18808428 9.07559794 15 14 C14.34 14.66 13.68 15.32 13 16 C11.20263155 14.0884175 9.41210526 12.17113816 7.625 10.25 C7.11710937 9.71117187 6.60921875 9.17234375 6.0859375 8.6171875 C3.5759302 5.90902173 1.38972557 3.44919841 0 0 Z " fill="#BCBCBC" transform="translate(1545,934)"/>
<path d="M0 0 C0.66 0 1.32 0 2 0 C2 0.66 2 1.32 2 2 C2.5775 2.226875 3.155 2.45375 3.75 2.6875 C6.5663661 4.33038023 8.08077114 6.39533227 10 9 C7 9 7 9 5.17578125 7.28515625 C4.56089844 6.55167969 3.94601562 5.81820313 3.3125 5.0625 C2.68988281 4.33160156 2.06726563 3.60070313 1.42578125 2.84765625 C0 1 0 1 0 0 Z " fill="#7D9392" transform="translate(572,1183)"/>
</svg>
